<svg xmlns="http://www.w3.org/2000/svg" xmlns:xlink="http://www.w3.org/1999/xlink" width="50" height="50"><defs><linearGradient id="a" x1="0.073" y1="0.938" x2="0.853" y2="0.137" gradientUnits="objectBoundingBox"><stop offset="0" stop-color="#5f1478"/><stop offset="1" stop-color="#ab266d"/></linearGradient><linearGradient id="b" x1="-0.034" y1="0.955" x2="0.825" y2="0.221" gradientUnits="objectBoundingBox"><stop offset="0.319" stop-color="#f59438"/><stop offset="1" stop-color="#eb5a4b"/></linearGradient></defs><g><g><path d="M28.849,3.81A24.849,24.849,0,1,0,53.7,28.659,24.849,24.849,0,0,0,28.849,3.81ZM42.547,36a5.578,5.578,0,0,1-5.6,5.532l-15.595-.09-5.6,4.774.155-25.941a5.582,5.582,0,0,1,5.6-5.537l15.59.05a5.587,5.587,0,0,1,5.537,5.6Z" transform="translate(-4 -3.81)" fill="url(#a)"/><path d="M44.659,3.81a25.085,25.085,0,0,0-5.617.659A24.766,24.766,0,0,0,35.55,14.99a5.4,5.4,0,0,1,1.756-.279l15.61.075a5.587,5.587,0,0,1,5.537,5.6l-.095,15.595a5.582,5.582,0,0,1-4.205,5.358,24.658,24.658,0,0,0,11.768.11A24.8,24.8,0,0,0,44.659,3.81Z" transform="translate(-19.811 -3.81)" fill="url(#b)"/></g></g></svg>